# xmcd
#
# Track frame offsets:
#	150
#	17347
#	32580
#	49450
#	60837
#	75530
#	90100
#	102902
#	115907
#	130797
#	146557
#
# Disc length: 2151 seconds
#
# Revision: 0
# Processed by: cddbd v1.5.2PL0 Copyright (c) Steve Scherf et al.
# Submitted via: dBpowerAMP V4.0
#
DISCID=7b08650b
DTITLE=Bret Marchant - Changing Brands
DYEAR=1900
DGENRE=
TTITLE0=Pryor Fire
TTITLE1=John Blue
TTITLE2=Changing Brands
TTITLE3=Jay and Me
TTITLE4=Emma's Picture
TTITLE5=Big Horn Country Fair
TTITLE6=Red Dusty Road
TTITLE7=Devil's Canyon
TTITLE8=Brand New Plow
TTITLE9=Mustang Reward
TTITLE10=My Rocky Mountain Way
EXTD=
EXTT0=
EXTT1=
EXTT2=
EXTT3=
EXTT4=
EXTT5=
EXTT6=
EXTT7=
EXTT8=
EXTT9=
EXTT10=
PLAYORDER=
